<mxfile host="app.diagrams.net" agent="Mozilla/5.0 (Windows NT 10.0; Win64; x64) AppleWebKit/537.36 (KHTML, like Gecko) Chrome/131.0.0.0 Safari/537.36" version="25.0.1">
  <diagram name="Trang-1" id="SL0U8kZz4upINJagSXaV">
    <mxGraphModel dx="1235" dy="614" grid="1" gridSize="10" guides="1" tooltips="1" connect="1" arrows="1" fold="1" page="1" pageScale="1" pageWidth="827" pageHeight="1169" math="0" shadow="0">
      <root>
        <mxCell id="0" />
        <mxCell id="1" parent="0" />
        <mxCell id="imwgdHQgu4gh2LJDYGsg-4" style="edgeStyle=orthogonalEdgeStyle;rounded=0;orthogonalLoop=1;jettySize=auto;html=1;entryX=0.5;entryY=0;entryDx=0;entryDy=0;" edge="1" parent="1" source="imwgdHQgu4gh2LJDYGsg-1" target="imwgdHQgu4gh2LJDYGsg-2">
          <mxGeometry relative="1" as="geometry" />
        </mxCell>
        <mxCell id="imwgdHQgu4gh2LJDYGsg-1" value="Start" style="ellipse;whiteSpace=wrap;html=1;" vertex="1" parent="1">
          <mxGeometry x="354" y="60" width="120" height="80" as="geometry" />
        </mxCell>
        <mxCell id="imwgdHQgu4gh2LJDYGsg-6" style="edgeStyle=orthogonalEdgeStyle;rounded=0;orthogonalLoop=1;jettySize=auto;html=1;entryX=0.5;entryY=0;entryDx=0;entryDy=0;" edge="1" parent="1" source="imwgdHQgu4gh2LJDYGsg-2" target="imwgdHQgu4gh2LJDYGsg-5">
          <mxGeometry relative="1" as="geometry" />
        </mxCell>
        <mxCell id="imwgdHQgu4gh2LJDYGsg-12" style="edgeStyle=orthogonalEdgeStyle;rounded=0;orthogonalLoop=1;jettySize=auto;html=1;entryX=0.5;entryY=0;entryDx=0;entryDy=0;" edge="1" parent="1" source="imwgdHQgu4gh2LJDYGsg-2" target="imwgdHQgu4gh2LJDYGsg-11">
          <mxGeometry relative="1" as="geometry" />
        </mxCell>
        <mxCell id="imwgdHQgu4gh2LJDYGsg-2" value="int n&lt;div&gt;int sum=0&lt;/div&gt;&lt;div&gt;int arr[n]&lt;/div&gt;" style="shape=parallelogram;perimeter=parallelogramPerimeter;whiteSpace=wrap;html=1;fixedSize=1;" vertex="1" parent="1">
          <mxGeometry x="336" y="190" width="156" height="60" as="geometry" />
        </mxCell>
        <mxCell id="imwgdHQgu4gh2LJDYGsg-8" style="edgeStyle=orthogonalEdgeStyle;rounded=0;orthogonalLoop=1;jettySize=auto;html=1;entryX=0.5;entryY=0;entryDx=0;entryDy=0;" edge="1" parent="1" source="imwgdHQgu4gh2LJDYGsg-5" target="imwgdHQgu4gh2LJDYGsg-7">
          <mxGeometry relative="1" as="geometry" />
        </mxCell>
        <mxCell id="imwgdHQgu4gh2LJDYGsg-5" value="for(int i=0; i&amp;lt;length; i++){&lt;br&gt;if(arr[i]{&lt;div&gt;sum+=arr[i]&lt;br&gt;}&lt;br&gt;}&lt;/div&gt;" style="rounded=0;whiteSpace=wrap;html=1;" vertex="1" parent="1">
          <mxGeometry x="300" y="380" width="226" height="110" as="geometry" />
        </mxCell>
        <mxCell id="imwgdHQgu4gh2LJDYGsg-10" style="edgeStyle=orthogonalEdgeStyle;rounded=0;orthogonalLoop=1;jettySize=auto;html=1;entryX=0.5;entryY=0;entryDx=0;entryDy=0;" edge="1" parent="1" source="imwgdHQgu4gh2LJDYGsg-7" target="imwgdHQgu4gh2LJDYGsg-9">
          <mxGeometry relative="1" as="geometry" />
        </mxCell>
        <mxCell id="imwgdHQgu4gh2LJDYGsg-7" value="sum" style="shape=parallelogram;perimeter=parallelogramPerimeter;whiteSpace=wrap;html=1;fixedSize=1;" vertex="1" parent="1">
          <mxGeometry x="354" y="500" width="120" height="60" as="geometry" />
        </mxCell>
        <mxCell id="imwgdHQgu4gh2LJDYGsg-9" value="End" style="ellipse;whiteSpace=wrap;html=1;" vertex="1" parent="1">
          <mxGeometry x="354" y="585" width="120" height="80" as="geometry" />
        </mxCell>
        <mxCell id="imwgdHQgu4gh2LJDYGsg-11" value="&lt;br&gt;&lt;span style=&quot;color: rgb(0, 0, 0); font-family: Helvetica; font-size: 12px; font-style: normal; font-variant-ligatures: normal; font-variant-caps: normal; font-weight: 400; letter-spacing: normal; orphans: 2; text-align: center; text-indent: 0px; text-transform: none; widows: 2; word-spacing: 0px; -webkit-text-stroke-width: 0px; white-space: normal; background-color: rgb(251, 251, 251); text-decoration-thickness: initial; text-decoration-style: initial; text-decoration-color: initial; display: inline !important; float: none;&quot;&gt;for(int i=0; i&amp;lt;n; i++){&lt;/span&gt;&lt;div&gt;arr[i]= giá trị người dùng nhập&lt;br&gt;&lt;div style=&quot;forced-color-adjust: none; color: rgb(0, 0, 0); font-family: Helvetica; font-size: 12px; font-style: normal; font-variant-ligatures: normal; font-variant-caps: normal; font-weight: 400; letter-spacing: normal; orphans: 2; text-align: center; text-indent: 0px; text-transform: none; widows: 2; word-spacing: 0px; -webkit-text-stroke-width: 0px; white-space: normal; background-color: rgb(251, 251, 251); text-decoration-thickness: initial; text-decoration-style: initial; text-decoration-color: initial;&quot;&gt;}&lt;/div&gt;&lt;br&gt;&lt;br&gt;&lt;/div&gt;" style="rounded=0;whiteSpace=wrap;html=1;" vertex="1" parent="1">
          <mxGeometry x="296" y="270" width="234" height="90" as="geometry" />
        </mxCell>
      </root>
    </mxGraphModel>
  </diagram>
</mxfile>
